<svg width="20" height="20" viewBox="0 0 20 20" fill="none" xmlns="http://www.w3.org/2000/svg">
<path d="M16.6667 16.6667C17.1087 16.6667 17.5326 16.4911 17.8452 16.1785C18.1578 15.866 18.3334 15.442 18.3334 15V6.66667C18.3334 6.22464 18.1578 5.80072 17.8452 5.48816C17.5326 5.17559 17.1087 5 16.6667 5H10.0834C9.80462 5.00273 9.52964 4.93551 9.2836 4.80448C9.03757 4.67346 8.82832 4.48281 8.67502 4.25L8.00002 3.25C7.84826 3.01956 7.64167 2.8304 7.39877 2.6995C7.15587 2.56859 6.88428 2.50005 6.60835 2.5H3.33335C2.89133 2.5 2.4674 2.67559 2.15484 2.98816C1.84228 3.30072 1.66669 3.72464 1.66669 4.16667V15C1.66669 15.442 1.84228 15.866 2.15484 16.1785C2.4674 16.4911 2.89133 16.6667 3.33335 16.6667H16.6667Z" fill="#CFD8DD"/>
<path d="M10 8.33331V13.3333" stroke="white" stroke-width="2" stroke-linecap="round" stroke-linejoin="round"/>
<path d="M7.5 10.8333H12.5" stroke="white" stroke-width="2" stroke-linecap="round" stroke-linejoin="round"/>
</svg>
