<svg width="20" height="20" viewBox="0 0 20 20" fill="none" xmlns="http://www.w3.org/2000/svg">
<path d="M6.58335 16.6667C8.17384 17.4826 10.0034 17.7036 11.7424 17.2898C13.4814 16.8761 15.0155 15.8549 16.0681 14.4102C17.1208 12.9655 17.6229 11.1923 17.4838 9.41015C17.3448 7.62803 16.5738 5.95416 15.3099 4.69018C14.0459 3.4262 12.372 2.65523 10.5899 2.5162C8.80776 2.37717 7.03458 2.87922 5.58987 3.93189C4.14516 4.98456 3.12393 6.51861 2.71021 8.25761C2.29648 9.99661 2.51747 11.8262 3.33335 13.4167L1.66669 18.3334L6.58335 16.6667Z" fill="#CFD8DD"/>
<path d="M6.66669 10H6.67502" stroke="white" stroke-width="2" stroke-linecap="round" stroke-linejoin="round"/>
<path d="M10 10H10.0083" stroke="white" stroke-width="2" stroke-linecap="round" stroke-linejoin="round"/>
<path d="M13.3333 10H13.3416" stroke="white" stroke-width="2" stroke-linecap="round" stroke-linejoin="round"/>
</svg>
